<svg id="Layer_1" data-name="Layer 1" xmlns="http://www.w3.org/2000/svg" xmlns:xlink="http://www.w3.org/1999/xlink" viewBox="0 0 184.4775 169.3621">
  <defs>
    <linearGradient id="linear-gradient" x1="63.156" y1="83.4227" x2="179.904" y2="83.4227" gradientUnits="userSpaceOnUse">
      <stop offset="0.1459" stop-color="#f0115b"/>
      <stop offset="1" stop-color="#250770"/>
    </linearGradient>
  </defs>
  <g id="logoMark">
    <path id="logoMark_CompoundPathItem_" data-name="logoMark &lt;CompoundPathItem&gt;" d="M172.14,79.5691a271.2158,271.2158,0,0,0,7.334-38.7614,261.2245,261.2245,0,0,0,1.9823-28.0421c.0057-.4514.0106-.9032.0071-1.3548a4.9577,4.9577,0,0,0-4.8849-4.885H133.8915a4.504,4.504,0,0,0-3.3155,1.3171c-.0418.0353-.0787.0761-.12.113-.0439.0486-.0929.093-.1348.1432a4.5115,4.5115,0,0,0-1.3146,3.3117c-.0015,1.1739-.066,2.3463-.0838,3.52C109.1345,2.0563,83.2253-1.17,60.6167,5.0979,33.9689,12.4855,13.2553,33.8524,5.4026,60.2011A80.8934,80.8934,0,0,0,3.5778,99.2847,84.2634,84.2634,0,0,0,20.2594,134.54c17.2044,21.7979,44.9746,32.8223,72.4639,29.7052a78.2015,78.2015,0,0,0,36.5076-13.939q.2436,4.5319.3774,9.0706c.0064.2217.005.4438.0057.6655a4.9567,4.9567,0,0,0,4.8848,4.8852h43.0917a4.9565,4.9565,0,0,0,4.8855-4.8852C182.454,133.0834,179.9786,105.5039,172.14,79.5691Zm-63.2086,14.236c-.1618.2-.4307.5358-.4151.5167q-.6715.8222-1.3764,1.6164c-1.0131,1.1391-2.0788,2.2315-3.2,3.264q-.7493.6906-1.5325,1.3445c-.259.216-.5215.4274-.7854.6376l-.0064.0053c-.0433.03-.0667.0455-.1248.0859-1.2019.839-2.4024,1.66-3.6816,2.38q-.8652.486-1.756.9223c-.1916.0937-1.0373.453-1.2785.5657a35.8891,35.8891,0,0,1-3.9164,1.2849q-.9876.2524-1.9894.4446c-.2462.0472-1.4509.2107-1.5176.2342a38.5693,38.5693,0,0,1-4.5046.213A24.3646,24.3646,0,0,1,65.1021,99.51a26.5869,26.5869,0,0,1-4.5578-7.5121,29.6385,29.6385,0,0,1-1.2274-4.8024c-.0078-.0411-.0213-.1538-.0341-.2655-.0489-.4748-.09-.95-.1156-1.4268q-.0756-1.3838-.0128-2.77.0265-.6255.08-1.249c.0014-.02.0936-.7221.1135-.9261.122-.7421.2632-1.4814.4413-2.2122q.2958-1.2142.6917-2.4011.1587-.4741.3328-.9431c.0873-.2364.1809-.4707.2746-.705.0071-.01.0326-.0657.095-.2063A23.5949,23.5949,0,0,1,84.3626,59.8084q.8334.0306,1.6638.1c.3093.0259.6187.0674.9287.0906,1.055.2,2.1093.3606,3.1537.6228Q91.6157,61,93.08,61.52c.4825.1715.9557.3649,1.4332.5483-1.4246-.5469.4058.1986.7812.3819a37.6835,37.6835,0,0,1,5.45,3.3243c.0979.07.1511.1068.2093.1474.056.05.1326.1169.254.2192.3923.3324.79.6586,1.1742.9992q1.2855,1.1355,2.4754,2.3725,1.1,1.14,2.1228,2.3521c.3455.4085.6733.8314,1.0167,1.2413l.0255.03.0029.0041c.1915.2632.3909.521.5825.7838a65.3321,65.3321,0,0,1,3.795,5.8571c.8727,1.5108,1.6361,3.0807,2.4073,4.6454-.15.2846-.2788.58-.4313.8625a66.4925,66.4925,0,0,1-5.0367,7.9774C109.358,93.2446,109.087,93.599,108.9309,93.8051Z" style="fill: #290d41"/>
    <path id="logoMark_PathItem_" data-name="logoMark &lt;PathItem&gt;" d="M171.3108,16.296h.3249c-.1312,4.6844-.4682,9.372-.862,14.03q-.3916,4.6473-.9294,9.2809c-.1817,1.57-.3817,3.1382-.5861,4.7059-.0355.27-.0794.6014-.0979.7325q-.08.5718-.1618,1.1434-.2075,1.4543-.4313,2.9062c-.6939,4.5138-1.529,9.0043-2.45,13.478C159.7184,47.377,150.8214,33.1707,138.511,22.25c.0887-1.9836.1064-3.9691.1462-5.9541Z" style="fill: #80bfd8"/>
    <path id="logoMark_PathItem_2" data-name="logoMark &lt;PathItem&gt;" d="M154.8619,100.2091c-.0887.204-.1752.4089-.2632.613q-.3469.8025-.7024,1.6012-1.3494,3.0319-2.8365,6.0009a123.9926,123.9926,0,0,1-6.5153,11.4751q-1.7241,2.6805-3.6035,5.2564c-.3037.4156-.6123.8277-.9209,1.24-.017.023-.1348.1777-.2427.3182s-.2313.2981-.25.321c-.6733.8475-1.3551,1.6886-2.054,2.5152-.122.1442-.2582.2756-.381.4191-.3157-2.3039-.6328-4.6083-.994-6.8954A175.3271,175.3271,0,0,0,128.6469,92.3c-.9152-2.6071-1.9135-5.1937-3.0047-7.7395a120.349,120.349,0,0,0,5.1048-13.6219,178.8624,178.8624,0,0,0,6.8984-35.9719q2.5935,2.787,4.953,5.7777c.0411.0525.0567.0706.0773.0969.0241.0322.0334.0448.0632.0835.1695.226.34.4507.51.677q.5736.7678,1.1316,1.5469,1.1919,1.6619,2.3165,3.37a119.3057,119.3057,0,0,1,8.2784,14.8565c1.4608,3.1039,2.1093,4.6289,3.2352,7.4942q1.6518,4.2054,3.065,8.4994c.2519.7628.4527,1.5413.6946,2.3074-1.7006,5.9647-3.65,11.8588-5.9292,17.6271C155.6573,98.2761,155.2614,99.2432,154.8619,100.2091Z" style="fill: #f9cb5a"/>
    <path id="logoMark_PathItem_3" data-name="logoMark &lt;PathItem&gt;" d="M139.8335,155.1571h-.5811c-.1192-4.1734-.342-8.35-.7123-12.5207,1.4218-1.3711,2.8294-2.7616,4.1626-4.2487,10.7282-11.971,18.2992-26.3772,23.8779-41.3972a259.2956,259.2956,0,0,1,5.4532,40.5565c.36,5.8638.5257,11.7362.6,17.61Z" style="fill: #94d1c6"/>
    <path id="logoMark_PathItem_4" data-name="logoMark &lt;PathItem&gt;" d="M93.7272,154.3529l.0383-.0051c.11-.0157.22-.0323.3306-.0485C94.1366,154.2929,94.0465,154.3055,93.7272,154.3529Z" style="fill: #f95e10"/>
    <path id="logoMark_PathItem_5" data-name="logoMark &lt;PathItem&gt;" d="M125.6728,141.0324l-.0235.0191c-.4739.3585-.9493.7156-1.43,1.0644q-2.6319,1.9063-5.4283,3.57-2.7543,1.6363-5.65,3.014-.7121.3381-1.43.66c-.2136.0957-.43.1859-.6428.284l-.0242.0114c-1.0245.4184-2.0532.8221-3.0948,1.1953a76.2239,76.2239,0,0,1-13.6321,3.4167c-.0738.0117-.1469.0213-.22.0321-.04.0064-.18.0273-.3306.0485-.0716.01-.1426.02-.2143.0312l.176-.0261c-.0859.0119-.1689.0231-.2263.03-.5854.0679-1.17.138-1.756.1972q-1.9923.2008-3.9916.3042a84.0946,84.0946,0,0,1-8.9467-.0033,69.29,69.29,0,0,1-36.5494-12.7484,74.54,74.54,0,0,1-13.3456-12.37,60.8022,60.8022,0,0,1-5.0579-6.8044,80.0012,80.0012,0,0,1-4.682-8.1487q-.9642-1.9339-1.8212-3.92c-.054-.1423-.4839-1.1866-.5747-1.4171q-.49-1.2507-.9366-2.5176a77.1459,77.1459,0,0,1-2.54-8.8532q-.47-2.1128-.8181-4.2506c-.034-.2087-.1625-1.0883-.1937-1.2767q-.1532-1.1991-.2653-2.4039a71.466,71.466,0,0,1-.2576-8.8522,74.4943,74.4943,0,0,1,9.6129-33.875,69.9947,69.9947,0,0,1,25.06-25.7816,64.8941,64.8941,0,0,1,17.5691-7.3566A73.1664,73.1664,0,0,1,84.352,11.8486q4.2462.04,8.477.4712c.6492.0673,1.2976.1437,1.9454.2244l.0589.0069c.05.008.0745.0119.14.022.2823.0438.5661.0837.8485.1279q2.0965.327,4.1747.7636a76.5614,76.5614,0,0,1,7.417,1.95q1.7464.555,3.4651,1.1958.8525.3186,1.6971.6576c.1164.0466.232.0945.3477.1419-.1589-.0637.5385.2265.713.3036a73.21,73.21,0,0,1,13.15,7.5215c.4867.35.9677.7086,1.4487,1.0667.0561.0421.1476.113.2391.1843-.161,2.5833-.3043,5.1678-.5527,7.7447a179.6426,179.6426,0,0,1-3.397,21.903,139.2781,139.2781,0,0,1-4.7962,16.9453,65.6122,65.6122,0,0,0-6.2556-8.6073,40.8013,40.8013,0,0,0-26.1426-14.2A33.32,33.32,0,0,0,50.9058,73.823c-5.0054,15.8706,2.8387,33.666,18.185,40.29,13.7244,5.9234,29.3644,2.5888,40.5354-6.92a53.8889,53.8889,0,0,0,9.8711-11.3553,169.855,169.855,0,0,1,6.4429,25.44q.6248,3.5112,1.14,7.04.12.8144.2341,1.63c.03.2153.0582.4308.0894.646v.0023c.1447,1.1409.293,2.2812.4285,3.4235.19,1.608.3037,3.2237.4655,4.835-.6889.5952-1.3842,1.1829-2.0937,1.7533C126.0275,140.7507,125.8473,140.8887,125.6728,141.0324Z" style="fill: url(#linear-gradient)"/>
  </g>
</svg>
